<?xml version="1.0" encoding="UTF-8" standalone="no"?>
<svg width="205px" height="298px" viewBox="0 0 205 298" version="1.1" xmlns="http://www.w3.org/2000/svg" xmlns:xlink="http://www.w3.org/1999/xlink" xmlns:sketch="http://www.bohemiancoding.com/sketch/ns">
    <!-- Generator: Sketch 3.2.2 (9983) - http://www.bohemiancoding.com/sketch -->
    <title>Slice 1</title>
    <desc>Created with Sketch.</desc>
    <defs></defs>
    <g id="Page-1" stroke="none" stroke-width="1" fill="none" fill-rule="evenodd" sketch:type="MSPage">
        <g id="shutterstock_158154644" sketch:type="MSLayerGroup" transform="translate(-79.000000, -904.000000)" fill="#343433">
            <path d="M214.512,983.552 C211.535,985.602 197.929,991.613 190.419,993.435 C183.1,995.211 174.536,997.372 165.026,997.725 C162.426,997.652 158.739,997.457 156.971,997.338 C153.004,997.069 150.274,996.251 146.429,994.972 C141.908,993.466 132.808,990.743 127.137,995.671 C122.801,994.707 118.383,993.462 114.07,991.852 L114.07,995.845 C115.132,996.286 120.352,998.201 126.89,999.795 C127.34,1005.241 129.48,1015.058 138.767,1019.67 C146.332,1023.428 162.865,1024.062 167.154,1002.233 C173.928,1001.543 189.192,999.241 202.085,993.955 C209.572,990.886 216.673,987.377 221.032,984.692 L214.512,983.552 Z" id="Fill-11" sketch:type="MSShapeGroup"></path>
            <path d="M244.024,1042.109 C240.931,1034.925 229.169,1034.725 227.889,1041.353 C229.144,1040.098 229.889,1039.459 231.574,1039.329 C239.927,1038.69 239.985,1050.021 232.733,1052.758 C226.957,1054.937 220.09,1051.842 215.432,1048.447 C211.706,1045.731 207.16,1039.074 196.16,1037.853 C191.995,1037.39 183.896,1039.671 181.933,1047.264 C179.971,1039.671 171.872,1037.39 167.706,1037.853 C156.708,1039.074 152.163,1045.731 148.435,1048.447 C143.775,1051.842 136.909,1054.937 131.134,1052.758 C123.881,1050.021 123.94,1038.69 132.292,1039.329 C133.979,1039.459 134.721,1040.098 135.977,1041.353 C134.699,1034.725 122.936,1034.925 119.842,1042.109 C116.87,1049.015 120.061,1056.691 126.823,1061.329 C132.94,1065.525 142.124,1066.952 148.942,1066.062 C160.216,1064.594 165.339,1059.946 173.668,1055.048 C176.991,1053.093 180.802,1052.769 181.933,1052.717 C183.065,1052.769 186.875,1053.093 190.198,1055.048 C198.529,1059.946 203.651,1064.594 214.924,1066.062 C221.743,1066.952 230.929,1065.525 237.045,1061.329 C243.805,1056.691 246.997,1049.015 244.024,1042.109" id="Fill-12" sketch:type="MSShapeGroup"></path>
            <path d="M264.452,1079.817 C263.6,1067.181 257.211,1057.944 246.419,1054.463 C242.576,1065.446 224.724,1071.232 210.936,1068.278 C204.632,1066.927 203.659,1066.507 197.719,1063.553 C208.107,1071.502 208.377,1090.052 212.969,1090.346 C215.828,1090.529 216.36,1085.282 216.36,1085.282 L228.709,1085.282 C228.709,1085.282 229.97,1089.457 229.927,1095.011 C229.907,1097.766 228.228,1105.99 218.652,1105.894 C200.231,1105.709 204.012,1081.769 196.404,1069.855 C192.386,1063.566 187.571,1061.801 184.898,1061.314 L171.261,1061.314 C160.969,1066.375 161.16,1066.715 153.526,1068.35 C139.737,1071.306 121.885,1065.52 118.043,1054.536 L118.316,1055.629 C118.125,1054.94 118.043,1054.536 118.043,1054.536 C111.348,1056.454 102.192,1068.59 104.321,1079.823 C104.356,1079.998 108.454,1074.492 116.382,1070.795 C105.28,1084.668 107.027,1107.171 116.806,1117.978 C116.746,1107.246 120.283,1100.955 129.2,1095.289 C124.918,1103.622 120.157,1122.737 129.022,1139.711 C133.188,1147.689 140.992,1153.588 150.12,1158.958 C149.481,1150.606 151.8,1148.409 155.794,1141.468 C152.434,1167.685 189.953,1175.435 184.166,1201.294 C198.371,1186.31 226.332,1181.437 219.912,1151.402 C223.942,1154.053 228.012,1160.136 227.067,1165.271 C234.853,1153.128 240.165,1135.102 232.085,1119.058 C240.815,1123.706 242.881,1128.794 243.102,1132.897 C243.102,1132.897 254.02,1128.542 259.54,1108.371 C264.759,1089.314 253.379,1072.423 253.379,1072.423 C253.379,1072.423 264.252,1077.734 264.452,1079.817" id="Fill-13" sketch:type="MSShapeGroup"></path>
            <path d="M181.022,946.995 L180.971,946.995 C161.164,946.776 144.761,939.922 132.784,934.917 C126.218,932.174 120.548,929.804 117.062,929.804 C116.182,929.804 115.495,929.951 114.962,930.255 C110.159,932.988 109.736,938.621 109.287,944.586 C108.763,951.552 108.169,959.447 99.716,962.332 C98.768,962.657 97.875,962.975 97.02,963.279 C93.106,964.676 89.725,965.882 85.654,965.882 C83.606,965.882 81.481,965.58 79.148,964.946 C79.814,966.557 80.88,968.579 82.579,970.783 C86.327,975.647 93.984,982.394 109.231,987.101 C114.263,985.572 145.96,976.392 181.013,976.655 C181.478,976.651 181.978,976.65 182.475,976.65 C216.922,976.65 247.802,985.594 252.761,987.101 C273.714,980.638 280.617,970.389 282.864,964.941 C280.523,965.578 278.392,965.882 276.339,965.882 C272.268,965.882 268.888,964.676 264.975,963.28 C264.12,962.975 263.226,962.657 262.277,962.332 C253.823,959.447 253.23,951.552 252.706,944.586 C252.257,938.621 251.834,932.988 247.03,930.255 C246.498,929.951 245.812,929.804 244.931,929.804 C241.445,929.804 235.776,932.174 229.211,934.917 C217.234,939.922 200.831,946.776 181.022,946.995" id="Fill-14" sketch:type="MSShapeGroup"></path>
            <path d="M134.535,930.726 C146.163,935.584 162.084,941.33 180.997,941.545 C199.911,941.33 215.832,935.584 227.46,930.726 C228.701,930.207 229.894,929.708 231.047,929.235 C218.951,914.035 201.019,904.575 180.997,904.575 C160.974,904.575 143.042,914.034 130.945,929.235 C132.099,929.708 133.294,930.207 134.535,930.726" id="Fill-15" sketch:type="MSShapeGroup"></path>
        </g>
    </g>
</svg>